<?xml version="1.0" encoding="utf-8"?>
<!-- Generator: Adobe Illustrator 23.0.1, SVG Export Plug-In . SVG Version: 6.00 Build 0)  -->
<svg version="1.1" id="Layer_1" xmlns="http://www.w3.org/2000/svg" xmlns:xlink="http://www.w3.org/1999/xlink" x="0px" y="0px"
	 viewBox="0 0 500 61" style="enable-background:new 0 0 500 61;" xml:space="preserve">
<g id="XMLID_2_">
	<g>
		<path d="M273.96,46.45c0.07,7.53,0.07,13.49,0.07,13.49l-23.32-0.08c0-2.51,0.13-10.7,0-11.81c-0.23-2.1-0.94-3.58-2.11-4.43
			c-1.18-0.86-3.16-1.29-5.93-1.29h-13.3v17.55h-22.61V2.34l43.79,0.01c5,0,9.01,0.24,12.03,0.72c3,0.48,4.34,1.12,6.03,2.12
			c2.15,1.27,3.78,2.97,4.91,5.12c1.13,2.14,1.7,4.61,1.7,7.41c0,3.4-0.85,6.39-2.54,8.96c-1.69,2.58-2.99,4.54-5.95,5.68
			c2.55,1.06,4.33,2.38,5.35,3.96c1.02,1.57,1.63,4.33,1.81,8.3C273.91,45.06,273.94,45.67,273.96,46.45z M251.61,21.95
			c0-1.87-0.66-3.17-1.96-3.9c-1.31-0.74-3.93-1.12-7.85-1.12h-12.44V27.2h12.98c3.4,0,5.79-0.41,7.18-1.21
			C250.9,25.18,251.61,23.84,251.61,21.95z"/>
	</g>
	<g>
	</g>
</g>
<path d="M46.28,2.38c8.04,0,13.72,1.11,17.05,3.33c3.33,2.22,5,5.89,5,11.03c0,2.83-0.65,5.3-1.94,7.43
	c-1.3,2.13-3.2,3.85-5.72,5.17c3.32,1.06,5.82,2.79,7.51,5.19c1.69,2.4,2.53,5.39,2.53,8.96c0,5.47-1.79,9.57-5.37,12.31
	c-3.58,2.74-8.96,4.1-16.14,4.1H0V2.38H46.28z M22.28,15.84v8.13h14.97c3.24,0,5.34-0.29,6.3-0.88c0.96-0.58,1.44-1.64,1.44-3.17
	c0-1.56-0.44-2.63-1.32-3.21c-0.88-0.58-3.02-0.88-6.42-0.88H22.28z M22.28,45.55h15.79c3.63,0,5.98-0.34,7.06-1.01
	c1.08-0.67,1.61-1.89,1.61-3.66c0-1.81-0.56-3.07-1.67-3.75c-1.11-0.69-3.45-1.03-7-1.03H22.28V45.55z"/>
<path d="M184.19,2.38h-28.27l-18.51,42.7H95.84v-7.54h31.31v-14.2H95.84V16.5h38.66V2.38H73.56V59.9h57.43h5.42h18.46l2.06-5.64
	h24.46l1.91,5.64h24.15L184.19,2.38z M162.18,40.07l7.35-20.22l6.92,20.22H162.18z"/>
<path d="M278.49,59.9V2.38h22.28v19.91h25.44V2.38h22.28V59.9h-22.28V36.64h-25.44V59.9H278.49z"/>
<path d="M375.42,2.38V30.5c0,5.78,0.88,9.79,2.63,12.04c1.75,2.24,4.78,3.36,9.08,3.36c4.3,0,7.32-1.11,9.04-3.34
	c1.72-2.23,2.59-6.25,2.59-12.06V2.38h22.32V32.6c0,9.98-2.72,17.29-8.15,21.93c-5.43,4.64-14.03,6.96-25.8,6.96
	c-11.69,0-20.28-2.33-25.77-7s-8.23-11.96-8.23-21.9V2.38H375.42z"/>
<path d="M487.55,54.81c-2.59,2.28-5.92,3.95-9.98,5.02c-4.06,1.06-9.12,1.59-15.19,1.59c-12.78,0-22.43-2.55-28.94-7.64
	c-6.51-5.09-9.76-12.63-9.76-22.62c0-10.01,3.25-17.56,9.76-22.65c6.51-5.09,16.15-7.64,28.94-7.64c10.76,0,19.38,1.83,25.86,5.48
	c6.48,3.66,10.15,8.74,11.01,15.25h-24.42c-1.19-2.33-2.77-4.07-4.73-5.21c-1.96-1.14-4.32-1.71-7.1-1.71
	c-4.64,0-8.36,1.49-11.16,4.47c-2.8,2.98-4.2,6.99-4.2,12.02c0,5.08,1.38,9.03,4.14,11.84c2.76,2.81,6.62,4.22,11.57,4.22
	c3.71,0,6.79-0.67,9.26-2.02c2.46-1.35,3.97-3.19,4.51-5.52h-9.26V27.23H500V59.9h-10.03L487.55,54.81z"/>
</svg>
