<?xml version="1.0" encoding="utf-8"?>
<!-- Generator: Adobe Illustrator 19.0.0, SVG Export Plug-In . SVG Version: 6.00 Build 0)  -->
<svg version="1.1" id="Layer_1" xmlns="http://www.w3.org/2000/svg" xmlns:xlink="http://www.w3.org/1999/xlink" x="0px" y="0px"
	 viewBox="-55 367.4 500 62.6" style="enable-background:new -55 367.4 500 62.6;" xml:space="preserve">
<path id="XMLID_17_" d="M-5.1,368.5c8.2,0,14.1,1.1,17.5,3.4s5.1,6,5.1,11.3c0,2.9-0.7,5.4-2,7.6c-1.3,2.2-4.9,4.6-8.3,5.3
	c3.4,1.1,6,2.9,7.7,5.3c1.7,2.5,2.6,5.5,2.6,9.2c0,5.6-1.8,9.8-5.5,12.6c-3.7,2.8-9.2,4.2-16.6,4.2H-55v-59H-5.1z M-32.1,382.4v8.3
	h18.8c3.3,0,4.5-0.3,5.5-0.9c1-0.6,1.5-1.7,1.5-3.3c0-1.6-0.5-2.7-1.4-3.3c-0.9-0.6-2.1-0.9-5.6-0.9L-32.1,382.4L-32.1,382.4z
	 M-32.1,412.8h16.2c3.7,0,6.1-0.3,7.2-1S-7,409.9-7,408c0-1.9-0.6-3.1-1.7-3.8c-1.1-0.7-3.5-1.1-7.2-1.1h-16.2V412.8z"/>
<path d="M217.8,411.9c-0.2-4.1-0.8-6.9-1.9-8.5c-1-1.6-2.9-3-5.5-4.1c3-1.2,4.4-3.2,6.1-5.8c1.7-2.6,2.6-5.7,2.6-9.2
	c0-2.9-0.6-5.4-1.7-7.6c-1.2-2.2-2.8-3.9-5-5.3c-1.7-1-3.1-1.7-6.2-2.2c-3.1-0.5-7.2-0.7-12.3-0.7l-44.9,0v45.8l-18.5-45.8h-29
	l-19,43.8h-40v-7.7H82v-14.6H42.5v-7h39.7v-14.5H19.6v59h58.9h2.9h18.9l2.1-5.8h25.1l2,5.8h24.8l0,0h17.8v-18h13.6
	c2.8,0,4.9,0.4,6.1,1.3c1.2,0.9,1.9,2.4,2.2,4.5c0.1,1.1,0,9.5,0,12.1l23.9,0.1c0,0,0-6.1-0.1-13.8
	C217.8,413,217.8,412.3,217.8,411.9z M107.8,407.2l7.5-20.7l7.1,20.7H107.8z M192.8,392.8c-1.4,0.8-3.9,1.2-7.4,1.2h-13.3v-10.5
	h12.8c4,0,6.7,0.4,8.1,1.1c1.3,0.7,2,2.1,2,4C194.9,390.6,194.2,391.9,192.8,392.8z"/>
<path id="XMLID_7_" d="M220.5,427.6v-59h22.9V389h26.1v-20.4h22.9v59h-22.9v-23.9h-26.1v23.9H220.5z"/>
<path id="XMLID_6_" d="M317.8,368.5v28.8c0,5.9,0.9,10,2.7,12.4c1.8,2.3,4.9,3.4,9.3,3.4s7.5-1.1,9.3-3.4c1.8-2.3,2.7-6.4,2.7-12.4
	v-28.8h22.9v31c0,10.2-2.8,17.7-8.4,22.5c-5.6,4.8-14.4,7.1-26.5,7.1c-12,0-20.8-2.4-26.4-7.2c-5.6-4.8-8.4-12.3-8.4-22.5v-31H317.8
	z"/>
<path id="XMLID_21_" d="M445.1,394h-33.4v12.8v0h9.5c-0.6,2.4-2.1,4.3-4.6,5.7c-2.5,1.4-5.7,2.1-9.5,2.1c-5.1,0-9-1.4-11.9-4.3
	c-2.8-2.9-4.2-6.9-4.2-12.1c0-5.2,1.4-9.3,4.3-12.3c2.9-3.1,5.7-4.6,10.4-4.6c2.9,0,5.3,0.6,7.3,1.8c2,1.2,3.6,3,4.9,5.3h25.1
	c-0.9-6.7-4.6-11.9-11.3-15.6c-6.6-3.7-15.5-5.6-26.5-5.6c-13.1,0-22,2.6-28.7,7.8c-6.7,5.2-10,13-10,23.2c0,10.2,3.3,18,10,23.2
	c6.7,5.2,16.6,7.8,29.7,7.8c6.2,0,11.4-0.5,15.6-1.6c4.2-1.1,8.7-3.1,12.7-5.9c6-4.2,8.4-10.3,9.6-14.7
	C445.1,402.1,445.1,394,445.1,394z"/>
</svg>
